<svg width="48" height="48" viewBox="0 0 48 48" fill="none" xmlns="http://www.w3.org/2000/svg">
<g clip-path="url(#clip0_22_104)">
<rect width="48" height="48" fill="white"/>
<path d="M7.27169 18.5H40.7283C41.7531 18.5 42.6741 19.1254 43.052 20.0779L45.433 26.0779C46.0843 27.7191 44.875 29.5 43.1093 29.5H4.89073C3.125 29.5 1.91572 27.7191 2.56701 26.0779L4.94796 20.0779C5.32594 19.1254 6.24693 18.5 7.27169 18.5Z" stroke="#152C5B" stroke-width="3"/>
<path d="M14 13V17" stroke="#152C5B" stroke-width="3" stroke-linecap="round"/>
<path d="M34 13V17" stroke="#152C5B" stroke-width="3" stroke-linecap="round"/>
<mask id="path-4-inside-1_22_104" fill="white">
<path d="M17 4C17.5523 4 18 4.44772 18 5L18 10C18 12.2091 16.2091 14 14 14C11.7909 14 10 12.2091 10 10L10 5C10 4.44772 10.4477 4 11 4L17 4Z"/>
</mask>
<path d="M17 4C17.5523 4 18 4.44772 18 5L18 10C18 12.2091 16.2091 14 14 14C11.7909 14 10 12.2091 10 10L10 5C10 4.44772 10.4477 4 11 4L17 4Z" stroke="#FF498B" stroke-width="6" mask="url(#path-4-inside-1_22_104)"/>
<mask id="path-5-inside-2_22_104" fill="white">
<path d="M37 4C37.5523 4 38 4.44772 38 5L38 10C38 12.2091 36.2091 14 34 14C31.7909 14 30 12.2091 30 10L30 5C30 4.44772 30.4477 4 31 4L37 4Z"/>
</mask>
<path d="M37 4C37.5523 4 38 4.44772 38 5L38 10C38 12.2091 36.2091 14 34 14C31.7909 14 30 12.2091 30 10L30 5C30 4.44772 30.4477 4 31 4L37 4Z" stroke="#FF498B" stroke-width="6" mask="url(#path-5-inside-2_22_104)"/>
<mask id="path-6-inside-3_22_104" fill="white">
<path d="M11 29C11.5523 29 12 29.4477 12 30L12 44C12 46.2091 10.2091 48 8 48C5.79086 48 4 46.2091 4 44L4 30C4 29.4477 4.44772 29 5 29L11 29Z"/>
</mask>
<path d="M11 29C11.5523 29 12 29.4477 12 30L12 44C12 46.2091 10.2091 48 8 48C5.79086 48 4 46.2091 4 44L4 30C4 29.4477 4.44772 29 5 29L11 29Z" stroke="#152C5B" stroke-width="6" mask="url(#path-6-inside-3_22_104)"/>
<mask id="path-7-inside-4_22_104" fill="white">
<path d="M43 29C43.5523 29 44 29.4477 44 30L44 44C44 46.2091 42.2091 48 40 48C37.7909 48 36 46.2091 36 44L36 30C36 29.4477 36.4477 29 37 29L43 29Z"/>
</mask>
<path d="M43 29C43.5523 29 44 29.4477 44 30L44 44C44 46.2091 42.2091 48 40 48C37.7909 48 36 46.2091 36 44L36 30C36 29.4477 36.4477 29 37 29L43 29Z" stroke="#152C5B" stroke-width="6" mask="url(#path-7-inside-4_22_104)"/>
</g>
<defs>
<clipPath id="clip0_22_104">
<rect width="48" height="48" fill="white"/>
</clipPath>
</defs>
</svg>
