<svg width="48" height="48" viewBox="0 0 48 48" fill="none" xmlns="http://www.w3.org/2000/svg">
<rect x="12.5" y="9.5" width="9" height="9" rx="2.5" stroke="#FF498B" stroke-width="3"/>
<rect x="25.5" y="9.5" width="9" height="9" rx="2.5" stroke="#FF498B" stroke-width="3"/>
<path d="M7.5 10C7.5 5.30558 11.3056 1.5 16 1.5H31C35.6944 1.5 39.5 5.30558 39.5 10V19.5H7.5V10Z" stroke="#152C5B" stroke-width="3"/>
<mask id="path-4-inside-1_22_60" fill="white">
<path d="M0 22.6874C0 20.4783 1.79086 18.6874 4 18.6874H44C46.2091 18.6874 48 20.4783 48 22.6874V31.9999C48 33.1045 47.1046 33.9999 46 33.9999H2C0.895431 33.9999 0 33.1045 0 31.9999V22.6874Z"/>
</mask>
<path d="M0 22.6874C0 20.4783 1.79086 18.6874 4 18.6874H44C46.2091 18.6874 48 20.4783 48 22.6874V31.9999C48 33.1045 47.1046 33.9999 46 33.9999H2C0.895431 33.9999 0 33.1045 0 31.9999V22.6874Z" stroke="#152C5B" stroke-width="6" mask="url(#path-4-inside-1_22_60)"/>
<path d="M5 34V41" stroke="#152C5B" stroke-width="3" stroke-linecap="round"/>
<path d="M43 34V41" stroke="#152C5B" stroke-width="3" stroke-linecap="round"/>
<path d="M6 37H42" stroke="#152C5B" stroke-width="3" stroke-linecap="round"/>
</svg>
