<svg width="48" height="48" viewBox="0 0 48 48" fill="none" xmlns="http://www.w3.org/2000/svg">
<path d="M30.5 40.5C30.5 41.6457 29.4516 43.1445 26.6771 44.4451C24.0221 45.6896 20.2488 46.5 16 46.5C11.7512 46.5 7.97793 45.6896 5.32294 44.4451C2.54839 43.1445 1.5 41.6457 1.5 40.5C1.5 39.3543 2.54839 37.8555 5.32294 36.5549C7.97793 35.3104 11.7512 34.5 16 34.5C20.2488 34.5 24.0221 35.3104 26.6771 36.5549C29.4516 37.8555 30.5 39.3543 30.5 40.5Z" stroke="#152C5B" stroke-width="3"/>
<path d="M27.5 13.8C27.5 17.0833 26.1081 23.8156 23.7946 29.7567C22.6427 32.7148 21.3022 35.3703 19.8663 37.2578C18.3813 39.2101 17.0606 40 16 40C14.9394 40 13.6187 39.2101 12.1337 37.2578C10.6978 35.3703 9.35729 32.7148 8.20537 29.7567C5.89188 23.8156 4.5 17.0833 4.5 13.8C4.5 7.58102 9.62671 2.5 16 2.5C22.3733 2.5 27.5 7.58102 27.5 13.8Z" fill="white" stroke="#152C5B" stroke-width="3"/>
<circle cx="16" cy="14" r="4.5" stroke="#FF498B" stroke-width="3"/>
</svg>
