<svg width="48" height="48" viewBox="0 0 48 48" fill="none" xmlns="http://www.w3.org/2000/svg">
<mask id="path-1-inside-1_9_22" fill="white">
<path fill-rule="evenodd" clip-rule="evenodd" d="M20.5229 9C19.8425 9 19.2088 9.3459 18.8407 9.91817L16.2156 14H8C3.58172 14 0 17.5817 0 22V36C0 40.4183 3.58172 44 8 44H40C44.4183 44 48 40.4183 48 36V22C48 17.5817 44.4183 14 40 14H31.4206L28.4396 9.83582C28.0641 9.31122 27.4585 9 26.8134 9H20.5229Z"/>
</mask>
<path d="M18.8407 9.91817L21.364 11.5409L21.364 11.5409L18.8407 9.91817ZM16.2156 14V17H17.8531L18.7388 15.6227L16.2156 14ZM31.4206 14L28.9813 15.7463L29.8788 17H31.4206V14ZM28.4396 9.83582L30.879 8.08954V8.08954L28.4396 9.83582ZM21.364 11.5409C21.1799 11.827 20.8631 12 20.5229 12V6C18.8219 6 17.2376 6.86476 16.3175 8.29543L21.364 11.5409ZM18.7388 15.6227L21.364 11.5409L16.3175 8.29542L13.6924 12.3773L18.7388 15.6227ZM8 17H16.2156V11H8V17ZM3 22C3 19.2386 5.23858 17 8 17V11C1.92487 11 -3 15.9249 -3 22H3ZM3 36V22H-3V36H3ZM8 41C5.23858 41 3 38.7614 3 36H-3C-3 42.0751 1.92487 47 8 47V41ZM40 41H8V47H40V41ZM45 36C45 38.7614 42.7614 41 40 41V47C46.0751 47 51 42.0751 51 36H45ZM45 22V36H51V22H45ZM40 17C42.7614 17 45 19.2386 45 22H51C51 15.9249 46.0751 11 40 11V17ZM31.4206 17H40V11H31.4206V17ZM26.0002 11.5821L28.9813 15.7463L33.86 12.2537L30.879 8.08954L26.0002 11.5821ZM26.8134 12C26.4908 12 26.188 11.8444 26.0002 11.5821L30.879 8.08954C29.9401 6.77805 28.4263 6 26.8134 6V12ZM20.5229 12H26.8134V6H20.5229V12Z" fill="#152C5B" mask="url(#path-1-inside-1_9_22)"/>
<circle cx="24" cy="29" r="6.5" stroke="#FF498B" stroke-width="3"/>
<path d="M33 21H41" stroke="#152C5B" stroke-width="3" stroke-linecap="round"/>
</svg>
